<svg width="152" height="33" viewBox="0 0 152 33" fill="none" xmlns="http://www.w3.org/2000/svg">
<path d="M22.5703 7.44199C22.3404 5.48172 22.9343 3.12419 22.6853 1.22252C22.6214 0.760125 22.3532 0.610325 21.9126 0.779658L18.8794 3.39772C18.7326 3.42379 17.8003 2.41432 17.6279 2.23199C17.0787 1.65232 15.9165 -0.301408 15.1949 0.864325L13.8987 4.19226L10.4121 2.64226C10.1822 2.57059 9.92043 2.69432 9.85656 2.92879C9.65225 3.66472 11.2806 7.53319 11.3764 8.55566C11.4402 8.60779 12.3917 7.92392 12.5833 7.82626C15.5653 6.23066 19.4797 6.10039 22.5703 7.43552V7.44199ZM21.2804 31.063C22.7491 29.3633 25.5333 25.6446 26.2867 20.2457C26.6507 17.6407 26.7784 14.6384 25.2204 11.8445C22.5703 7.09032 16.2358 6.92099 12.2129 9.92332C9.05841 12.2809 8.63696 15.7521 7.39178 19.2233C6.15298 22.6879 4.51187 25.5535 2.20667 28.3734C1.70853 28.979 -0.3604 30.7309 0.0546618 31.7013C0.150501 31.9292 0.361189 32.053 0.508072 32.1246C2.21305 32.9778 5.35475 32.1442 6.34452 31.8967C8.91152 31.2715 10.8911 30.783 13.2218 31.1282C15.7888 31.5059 17.1234 32.6326 19.3903 31.9878C20.2332 31.7469 20.8781 31.3561 21.2804 31.063Z" fill="url(#paint0_linear_376_1381)"/>
<path d="M22.5703 7.44199C22.3404 5.48172 22.9343 3.12419 22.6853 1.22252C22.6214 0.760125 22.3532 0.610325 21.9126 0.779658L18.8794 3.39772C18.7326 3.42379 17.8003 2.41432 17.6279 2.23199C17.0787 1.65232 15.9165 -0.301408 15.1949 0.864325L13.8987 4.19226L10.4121 2.64226C10.1822 2.57059 9.92043 2.69432 9.85656 2.92879C9.65225 3.66472 11.2806 7.53319 11.3764 8.55566C11.4402 8.60779 12.3917 7.92392 12.5833 7.82626C15.5653 6.23066 19.4797 6.10039 22.5703 7.43552V7.44199ZM21.2804 31.063C22.7491 29.3633 25.5333 25.6446 26.2867 20.2457C26.6507 17.6407 26.7784 14.6384 25.2204 11.8445C22.5703 7.09032 16.2358 6.92099 12.2129 9.92332C9.05841 12.2809 8.63696 15.7521 7.39178 19.2233C6.15298 22.6879 4.51187 25.5535 2.20667 28.3734C1.70853 28.979 -0.3604 30.7309 0.0546618 31.7013C0.150501 31.9292 0.361189 32.053 0.508072 32.1246C2.21305 32.9778 5.35475 32.1442 6.34452 31.8967C8.91152 31.2715 10.8911 30.783 13.2218 31.1282C15.7888 31.5059 17.1234 32.6326 19.3903 31.9878C20.2332 31.7469 20.8781 31.3561 21.2804 31.063Z" fill="url(#paint1_linear_376_1381)"/>
<path d="M17.1751 13.2576C17.2453 13.1925 17.4496 13.0622 17.539 13.0427C19.5058 12.5933 19.3653 16.6441 17.6923 16.325C16.5429 16.1036 16.428 13.9675 17.1751 13.2641V13.2576Z" fill="#0D1D14"/>
<path d="M22.6332 12.9644C24.2041 12.743 24.2935 16.2794 22.7482 16.2794C21.3369 16.2794 21.2348 13.1598 22.6332 12.9644Z" fill="#0D1D14"/>
<path d="M107.33 14.5546C108.211 14.5546 108.666 14.7064 109 14.8583V18.2298H106.966C104.265 18.2298 103.567 19.5966 103.567 22.0265V31.0171H100.106V14.8583H103.567V18.5336H103.749C104.173 15.7392 105.145 14.5546 107.33 14.5546Z" fill="white"/>
<path d="M91.9296 14.4934C95.4202 14.4934 97.454 16.0425 97.454 20.2341V31.0167H93.9933V21.4186C93.9933 18.3813 92.8707 17.6219 90.381 17.6219C87.983 17.6219 86.5262 18.3813 86.5262 21.4186V31.0167H83.0654V14.8579H86.5262V18.0167H86.7083C87.5278 15.8299 88.742 14.4934 91.9296 14.4934Z" fill="white"/>
<path d="M74.8891 14.4934C78.3798 14.4934 80.4135 16.0425 80.4135 20.2341V31.0167H76.9535V21.4186C76.9535 18.3813 75.8303 17.6219 73.3412 17.6219C70.9432 17.6219 69.4857 18.3813 69.4857 21.4186V31.0167H66.0256V14.8579H69.4857V18.0167H69.6678C70.488 15.8299 71.7016 14.4934 74.8891 14.4934Z" fill="white"/>
<path d="M59.4585 31.017V14.8582H63.3745V31.017H59.4585ZM59.4585 12.4891V9.08728H63.3745V12.4891H59.4585Z" fill="white"/>
<path d="M33.9747 31.0162L29.062 9.12363H32.9474L36.3424 25.7312H36.5245L40.9611 9.12363H45.0288L49.4558 25.7312H49.6379L53.0425 9.12363H56.8065L51.8235 31.0162H47.7559L43.1116 14.3107H42.8687L38.2244 31.0162H33.9747Z" fill="white"/>
<path d="M116.344 28.5C115.797 28.5 115.469 28.1562 115.469 27.5938V18.1328C115.469 17.5703 115.797 17.2266 116.344 17.2266H119.969C121.969 17.2266 123.281 18.3359 123.281 20.0391C123.281 21.2344 122.398 22.3047 121.273 22.4922V22.5547C122.805 22.7266 123.836 23.8125 123.836 25.3125C123.836 27.2969 122.391 28.5 119.992 28.5H116.344ZM117.219 22.0234H119.18C120.695 22.0234 121.531 21.3984 121.531 20.2812C121.531 19.2344 120.812 18.6562 119.547 18.6562H117.219V22.0234ZM117.219 27.0703H119.633C121.211 27.0703 122.047 26.4219 122.047 25.2031C122.047 23.9844 121.188 23.3594 119.531 23.3594H117.219V27.0703ZM126.219 28.5C125.672 28.5 125.344 28.1562 125.344 27.5938V18.1328C125.344 17.5703 125.672 17.2266 126.219 17.2266H131.812C132.297 17.2266 132.625 17.5234 132.625 17.9844C132.625 18.4453 132.297 18.7422 131.812 18.7422H127.094V22.0312H131.555C132.016 22.0312 132.336 22.3125 132.336 22.7578C132.336 23.1953 132.023 23.4844 131.555 23.4844H127.094V26.9844H131.812C132.297 26.9844 132.625 27.2812 132.625 27.7422C132.625 28.2031 132.297 28.5 131.812 28.5H126.219ZM137.969 28.625C137.422 28.625 137.094 28.2812 137.094 27.7188V18.7422H134.328C133.844 18.7422 133.516 18.4453 133.516 17.9844C133.516 17.5234 133.844 17.2266 134.328 17.2266H141.602C142.086 17.2266 142.414 17.5234 142.414 17.9844C142.414 18.4453 142.086 18.7422 141.602 18.7422H138.844V27.7188C138.844 28.2812 138.508 28.625 137.969 28.625ZM142.461 28.625C141.938 28.625 141.586 28.3047 141.586 27.8281C141.586 27.6953 141.617 27.5234 141.695 27.3125L145.125 18.0156C145.352 17.3906 145.734 17.1016 146.352 17.1016C146.961 17.1016 147.336 17.3828 147.57 18.0078L151.008 27.3125C151.086 27.5312 151.117 27.6797 151.117 27.8281C151.117 28.2891 150.75 28.625 150.242 28.625C149.773 28.625 149.516 28.4062 149.359 27.9062L148.5 25.4766H144.188L143.336 27.8984C143.172 28.4062 142.914 28.625 142.461 28.625ZM144.633 24.0469H148.055L146.359 19.1016H146.312L144.633 24.0469Z" fill="#65FB79"/>
<defs>
<linearGradient id="paint0_linear_376_1381" x1="13.2602" y1="0.499991" x2="13.2602" y2="32.5" gradientUnits="userSpaceOnUse">
<stop stop-color="#CCFF4A"/>
<stop offset="1" stop-color="#00FED0"/>
</linearGradient>
<linearGradient id="paint1_linear_376_1381" x1="13.2602" y1="0.499991" x2="13.2602" y2="32.5" gradientUnits="userSpaceOnUse">
<stop stop-color="#5EFB7E"/>
<stop offset="1" stop-color="#ADFA3C"/>
</linearGradient>
</defs>
</svg>
