<svg width="20" height="20" viewBox="0 0 20 20" fill="none" xmlns="http://www.w3.org/2000/svg">
<path d="M18.125 10C18.125 14.4871 14.4871 18.125 10 18.125C5.51289 18.125 1.875 14.4871 1.875 10C1.875 5.51289 5.51289 1.875 10 1.875C14.4871 1.875 18.125 5.51289 18.125 10ZM9.81836 6.43125C9.76008 6.48906 9.71375 6.55778 9.68203 6.63349C9.65031 6.70921 9.63382 6.79043 9.63349 6.87251C9.63316 6.9546 9.64901 7.03595 9.68013 7.11191C9.71125 7.18788 9.75702 7.25697 9.81484 7.31523L11.8586 9.375H6.64062C6.47486 9.375 6.31589 9.44085 6.19868 9.55806C6.08147 9.67527 6.01562 9.83424 6.01562 10C6.01562 10.1658 6.08147 10.3247 6.19868 10.4419C6.31589 10.5592 6.47486 10.625 6.64062 10.625H11.8586L9.81484 12.6848C9.75703 12.7431 9.71127 12.8122 9.68018 12.8882C9.64909 12.9643 9.63327 13.0456 9.63364 13.1278C9.634 13.2099 9.65053 13.2911 9.68229 13.3669C9.71406 13.4426 9.76042 13.5113 9.81875 13.5691C9.87708 13.627 9.94622 13.6727 10.0222 13.7038C10.0982 13.7349 10.1796 13.7507 10.2617 13.7503C10.3439 13.75 10.4251 13.7335 10.5008 13.7017C10.5766 13.6699 10.6453 13.6236 10.7031 13.5652L13.8043 10.4402C13.9205 10.3232 13.9857 10.1649 13.9857 10C13.9857 9.83507 13.9205 9.67683 13.8043 9.55977L10.7031 6.43477C10.6453 6.37637 10.5765 6.32994 10.5007 6.29815C10.425 6.26636 10.3437 6.24983 10.2615 6.24951C10.1793 6.24918 10.0979 6.26506 10.0218 6.29625C9.94578 6.32744 9.87664 6.37331 9.81836 6.43125Z" fill="#060B0F"/>
</svg>
