<svg width="16" height="16" viewBox="0 0 16 16" fill="none" xmlns="http://www.w3.org/2000/svg">
<path d="M10.6667 3C10.6667 2.73478 10.772 2.48043 10.9596 2.29289C11.1471 2.10536 11.4015 2 11.6667 2H13C13.2652 2 13.5196 2.10536 13.7071 2.29289C13.8946 2.48043 14 2.73478 14 3V13C14 13.2652 13.8946 13.5196 13.7071 13.7071C13.5196 13.8946 13.2652 14 13 14H11.6667C11.4015 14 11.1471 13.8946 10.9596 13.7071C10.772 13.5196 10.6667 13.2652 10.6667 13V3ZM6.33333 7C6.33333 6.73478 6.43869 6.48043 6.62623 6.29289C6.81376 6.10536 7.06812 6 7.33333 6H8.66667C8.93188 6 9.18624 6.10536 9.37377 6.29289C9.56131 6.48043 9.66667 6.73478 9.66667 7V13C9.66667 13.2652 9.56131 13.5196 9.37377 13.7071C9.18624 13.8946 8.93188 14 8.66667 14H7.33333C7.06812 14 6.81376 13.8946 6.62623 13.7071C6.43869 13.5196 6.33333 13.2652 6.33333 13V7ZM3 10C2.73478 10 2.48043 10.1054 2.29289 10.2929C2.10536 10.4804 2 10.7348 2 11V13C2 13.2652 2.10536 13.5196 2.29289 13.7071C2.48043 13.8946 2.73478 14 3 14H4.33333C4.59855 14 4.8529 13.8946 5.04044 13.7071C5.22798 13.5196 5.33333 13.2652 5.33333 13V11C5.33333 10.7348 5.22798 10.4804 5.04044 10.2929C4.8529 10.1054 4.59855 10 4.33333 10H3Z" fill="#818D98"/>
</svg>
