<svg width="14" height="14" viewBox="0 0 14 14" fill="none" xmlns="http://www.w3.org/2000/svg">
<mask id="mask0_427_2262" style="mask-type:luminance" maskUnits="userSpaceOnUse" x="2" y="1" width="10" height="12">
<path d="M4.375 2.04163V3.79163M4.375 8.45829V10.7916" stroke="#C0C0C0" stroke-linecap="round"/>
<path d="M2.9165 4.55C2.9165 4.27152 3.02713 4.00445 3.22404 3.80754C3.42095 3.61062 3.68803 3.5 3.9665 3.5H4.78317C5.06165 3.5 5.32872 3.61062 5.52563 3.80754C5.72255 4.00445 5.83317 4.27152 5.83317 4.55V7.7C5.83317 7.83789 5.80601 7.97443 5.75324 8.10182C5.70048 8.22921 5.62313 8.34496 5.52563 8.44246C5.42813 8.53996 5.31238 8.61731 5.18499 8.67007C5.0576 8.72284 4.92106 8.75 4.78317 8.75H3.9665C3.82862 8.75 3.69208 8.72284 3.56469 8.67007C3.43729 8.61731 3.32154 8.53996 3.22404 8.44246C3.12654 8.34496 3.0492 8.22921 2.99643 8.10182C2.94366 7.97443 2.9165 7.83789 2.9165 7.7V4.55Z" fill="white"/>
<path d="M9.625 3.79163V6.70829M9.625 9.62496V11.9583" stroke="#C0C0C0" stroke-linecap="round"/>
<path d="M8.1665 7.46663C8.1665 7.18815 8.27713 6.92108 8.47404 6.72416C8.67095 6.52725 8.93803 6.41663 9.2165 6.41663H10.0332C10.3116 6.41663 10.5787 6.52725 10.7756 6.72416C10.9725 6.92108 11.0832 7.18815 11.0832 7.46663V8.86663C11.0832 9.1451 10.9725 9.41217 10.7756 9.60909C10.5787 9.806 10.3116 9.91663 10.0332 9.91663H9.2165C8.93803 9.91663 8.67095 9.806 8.47404 9.60909C8.27713 9.41217 8.1665 9.1451 8.1665 8.86663V7.46663Z" fill="white"/>
</mask>
<g mask="url(#mask0_427_2262)">
<path d="M0 0H14V14H0V0Z" fill="#818D98"/>
</g>
</svg>
