<svg width="16" height="17" viewBox="0 0 16 17" fill="none" xmlns="http://www.w3.org/2000/svg">
<path d="M11.3335 2.72664C12.339 3.30721 13.1755 4.14032 13.76 5.1435C14.3446 6.14669 14.6571 7.28515 14.6664 8.4462C14.6758 9.60724 14.3818 10.7506 13.8135 11.7631C13.2452 12.7756 12.4223 13.6221 11.4263 14.2188C10.4303 14.8156 9.29574 15.1419 8.1349 15.1653C6.97405 15.1888 5.8272 14.9087 4.80787 14.3528C3.78854 13.7968 2.93208 12.9843 2.32327 11.9956C1.71447 11.007 1.37444 9.87644 1.33683 8.71597L1.3335 8.49997L1.33683 8.28397C1.37416 7.13263 1.70919 6.01061 2.30926 5.0273C2.90932 4.04399 3.75393 3.23294 4.76076 2.67322C5.76758 2.11351 6.90226 1.82423 8.05417 1.83359C9.20607 1.84295 10.3359 2.15063 11.3335 2.72664ZM8.00016 4.49997C7.83687 4.49999 7.67927 4.55994 7.55725 4.66845C7.43522 4.77695 7.35727 4.92647 7.33816 5.08864L7.3335 5.16664V8.49997L7.3395 8.5873C7.3547 8.70297 7.39998 8.81262 7.47083 8.9053L7.52883 8.97197L9.52883 10.972L9.5915 11.0266C9.70841 11.1173 9.85218 11.1666 10.0002 11.1666C10.1481 11.1666 10.2919 11.1173 10.4088 11.0266L10.4715 10.9713L10.5268 10.9086C10.6175 10.7917 10.6668 10.6479 10.6668 10.5C10.6668 10.352 10.6175 10.2082 10.5268 10.0913L10.4715 10.0286L8.66683 8.2233V5.16664L8.66216 5.08864C8.64306 4.92647 8.5651 4.77695 8.44308 4.66845C8.32105 4.55994 8.16345 4.49999 8.00016 4.49997Z" fill="#818D98"/>
</svg>
