<svg width="16" height="16" viewBox="0 0 16 16" fill="none" xmlns="http://www.w3.org/2000/svg">
<g clip-path="url(#clip0_353_16398)">
<path d="M7.99991 0.733398C3.98641 0.733398 0.73291 3.9869 0.73291 8.0004C0.73291 12.0139 3.98641 15.2674 7.99991 15.2674C12.0134 15.2674 15.2669 12.0139 15.2669 8.0004C15.2669 3.9869 12.0134 0.733398 7.99991 0.733398ZM8.62741 11.9404V12.9639H7.64841V11.9519C6.04191 11.7319 5.33841 10.4119 5.33841 10.4119L6.33841 9.5754C6.33841 9.5754 6.97691 10.6869 8.13191 10.6869C8.76991 10.6869 9.25391 10.3454 9.25391 9.7619C9.25391 8.3979 5.57891 8.5634 5.57891 6.0329C5.57891 4.9329 6.44891 4.1404 7.64791 3.9529V2.9304H8.62691V3.9529C9.46291 4.0629 10.4529 4.5029 10.4529 5.4494V6.1754H9.15491V5.8234C9.15491 5.4604 8.69241 5.2184 8.17491 5.2184C7.51491 5.2184 7.03141 5.5484 7.03141 6.0104C7.03141 7.4074 10.7064 7.0664 10.7064 9.7179C10.7064 10.8079 9.89241 11.7529 8.62741 11.9404Z" fill="#65FB79"/>
</g>
<defs>
<clipPath id="clip0_353_16398">
<rect width="16" height="16" fill="white"/>
</clipPath>
</defs>
</svg>
