<svg width="16" height="16" viewBox="0 0 16 16" fill="none" xmlns="http://www.w3.org/2000/svg">
<path d="M8 11.5C8.19833 11.5 8.3647 11.4328 8.4991 11.2984C8.6335 11.164 8.70046 10.9979 8.7 10.8V8C8.7 7.80166 8.6328 7.63553 8.4984 7.5016C8.364 7.36766 8.19786 7.30047 8 7.3C7.80213 7.29953 7.636 7.36673 7.5016 7.5016C7.3672 7.63647 7.3 7.8026 7.3 8V10.8C7.3 10.9983 7.3672 11.1647 7.5016 11.2991C7.636 11.4335 7.80213 11.5005 8 11.5ZM8 5.9C8.19833 5.9 8.3647 5.8328 8.4991 5.6984C8.6335 5.564 8.70046 5.39787 8.7 5.2C8.69953 5.00213 8.63233 4.836 8.4984 4.7016C8.36446 4.5672 8.19833 4.5 8 4.5C7.80166 4.5 7.63553 4.5672 7.5016 4.7016C7.36766 4.836 7.30046 5.00213 7.3 5.2C7.29953 5.39787 7.36673 5.56423 7.5016 5.6991C7.63646 5.83397 7.8026 5.90093 8 5.9ZM8 15C7.03166 15 6.12166 14.8161 5.27 14.4484C4.41833 14.0807 3.6775 13.582 3.0475 12.9525C2.4175 12.323 1.91887 11.5821 1.5516 10.73C1.18433 9.87786 1.00047 8.96786 1 8C0.999534 7.03213 1.1834 6.12213 1.5516 5.27C1.9198 4.41787 2.41843 3.67703 3.0475 3.0475C3.67657 2.41797 4.4174 1.91933 5.27 1.5516C6.1226 1.18387 7.0326 1 8 1C8.9674 1 9.87739 1.18387 10.73 1.5516C11.5826 1.91933 12.3234 2.41797 12.9525 3.0475C13.5816 3.67703 14.0804 4.41787 14.4491 5.27C14.8178 6.12213 15.0014 7.03213 15 8C14.9986 8.96786 14.8147 9.87786 14.4484 10.73C14.0821 11.5821 13.5834 12.323 12.9525 12.9525C12.3216 13.582 11.5807 14.0809 10.73 14.4491C9.87926 14.8173 8.96926 15.0009 8 15Z" fill="#FD3B3B"/>
</svg>
