<svg width="12" height="12" viewBox="0 0 12 12" fill="none" xmlns="http://www.w3.org/2000/svg">
<g clip-path="url(#clip0_708_2493)">
<path d="M6 9C6.17 9 6.3126 8.9424 6.4278 8.8272C6.543 8.712 6.6004 8.5696 6.6 8.4V6C6.6 5.83 6.5424 5.6876 6.4272 5.5728C6.312 5.458 6.1696 5.4004 6 5.4C5.8304 5.3996 5.688 5.4572 5.5728 5.5728C5.4576 5.6884 5.4 5.8308 5.4 6V8.4C5.4 8.57 5.4576 8.7126 5.5728 8.8278C5.688 8.943 5.8304 9.0004 6 9ZM6 4.2C6.17 4.2 6.3126 4.1424 6.4278 4.0272C6.543 3.912 6.6004 3.7696 6.6 3.6C6.5996 3.4304 6.542 3.288 6.4272 3.1728C6.3124 3.0576 6.17 3 6 3C5.83 3 5.6876 3.0576 5.5728 3.1728C5.458 3.288 5.4004 3.4304 5.4 3.6C5.3996 3.7696 5.4572 3.9122 5.5728 4.0278C5.6884 4.1434 5.8308 4.2008 6 4.2ZM6 12C5.17 12 4.39 11.8424 3.66 11.5272C2.93 11.212 2.295 10.7846 1.755 10.245C1.215 9.7054 0.7876 9.0704 0.4728 8.34C0.158001 7.6096 0.000400759 6.8296 7.59493e-07 6C-0.00039924 5.1704 0.157201 4.3904 0.4728 3.66C0.7884 2.9296 1.2158 2.2946 1.755 1.755C2.2942 1.2154 2.9292 0.788 3.66 0.4728C4.3908 0.1576 5.1708 0 6 0C6.8292 0 7.6092 0.1576 8.33999 0.4728C9.07079 0.788 9.7058 1.2154 10.245 1.755C10.7842 2.2946 11.2118 2.9296 11.5278 3.66C11.8438 4.3904 12.0012 5.1704 12 6C11.9988 6.8296 11.8412 7.6096 11.5272 8.34C11.2132 9.0704 10.7858 9.7054 10.245 10.245C9.7042 10.7846 9.06919 11.2122 8.33999 11.5278C7.6108 11.8434 6.8308 12.0008 6 12Z" fill="#475B6B"/>
</g>
<defs>
<clipPath id="clip0_708_2493">
<rect width="12" height="12" fill="white"/>
</clipPath>
</defs>
</svg>
