<svg width="16" height="16" viewBox="0 0 16 16" fill="none" xmlns="http://www.w3.org/2000/svg">
<path d="M7.99967 1.33337C11.6817 1.33337 14.6663 4.31804 14.6663 8.00004C14.6663 9.76815 13.964 11.4638 12.7137 12.7141C11.4635 13.9643 9.76778 14.6667 7.99967 14.6667C6.23156 14.6667 4.53587 13.9643 3.28563 12.7141C2.03539 11.4638 1.33301 9.76815 1.33301 8.00004L1.33567 7.81337C1.43434 4.21804 4.37967 1.33337 7.99967 1.33337ZM9.99967 9.41337C9.82286 9.41337 9.65329 9.48361 9.52827 9.60864C9.40324 9.73366 9.33301 9.90323 9.33301 10.08V10.09C9.33301 10.2669 9.40324 10.4364 9.52827 10.5614C9.65329 10.6865 9.82286 10.7567 9.99967 10.7567C10.1765 10.7567 10.3461 10.6865 10.4711 10.5614C10.5961 10.4364 10.6663 10.2669 10.6663 10.09V10.08C10.6663 9.90323 10.5961 9.73366 10.4711 9.60864C10.3461 9.48361 10.1765 9.41337 9.99967 9.41337ZM10.471 5.57871C10.346 5.45373 10.1764 5.38352 9.99967 5.38352C9.8229 5.38352 9.65336 5.45373 9.52834 5.57871L5.52834 9.57871C5.4069 9.70444 5.33971 9.87284 5.34123 10.0476C5.34274 10.2224 5.41286 10.3896 5.53646 10.5133C5.66007 10.6369 5.82728 10.707 6.00207 10.7085C6.17687 10.71 6.34527 10.6428 6.47101 10.5214L10.471 6.52137C10.596 6.39636 10.6662 6.22682 10.6662 6.05004C10.6662 5.87326 10.596 5.70373 10.471 5.57871ZM5.99967 5.40337C5.82286 5.40337 5.65329 5.47361 5.52827 5.59864C5.40325 5.72366 5.33301 5.89323 5.33301 6.07004V6.08004C5.33301 6.25685 5.40325 6.42642 5.52827 6.55144C5.65329 6.67647 5.82286 6.74671 5.99967 6.74671C6.17649 6.74671 6.34605 6.67647 6.47108 6.55144C6.5961 6.42642 6.66634 6.25685 6.66634 6.08004V6.07004C6.66634 5.89323 6.5961 5.72366 6.47108 5.59864C6.34605 5.47361 6.17649 5.40337 5.99967 5.40337Z" fill="#818D98"/>
</svg>
