<svg width="20" height="21" viewBox="0 0 20 21" fill="none" xmlns="http://www.w3.org/2000/svg">
<path d="M2.42894 10.34C7.6656 8.03624 14.4423 5.22749 15.3777 4.83874C17.8314 3.82124 18.5844 4.01624 18.2089 6.26957C17.9394 7.88916 17.1614 13.2512 16.5414 16.5887C16.1735 18.5679 15.3481 18.8025 14.0502 17.9462C13.426 17.5342 10.2756 15.4508 9.59185 14.9617C8.96769 14.5158 8.10685 13.9796 9.18644 12.9233C9.5706 12.5471 12.0889 10.1425 14.051 8.27082C14.3081 8.02499 13.9852 7.62124 13.6885 7.81832C11.0439 9.57207 7.37727 12.0062 6.9106 12.3233C6.2056 12.8021 5.52852 13.0217 4.3131 12.6725C3.39477 12.4087 2.49769 12.0942 2.14852 11.9742C0.803937 11.5125 1.1231 10.9146 2.42894 10.34Z" fill="#AFD9B7"/>
</svg>
