<svg width="16" height="16" viewBox="0 0 16 16" fill="none" xmlns="http://www.w3.org/2000/svg">
<path d="M10.3868 11.2L8.00016 9.66663L5.6135 11.2L6.3335 8.45329L4.14016 6.66663L6.9735 6.49329L8.00016 3.86663L9.02683 6.49329L11.8602 6.66663L9.66683 8.45329M13.3335 7.99996C13.3335 7.64634 13.474 7.3072 13.724 7.05715C13.9741 6.8071 14.3132 6.66663 14.6668 6.66663V3.99996C14.6668 3.64634 14.5264 3.3072 14.2763 3.05715C14.0263 2.8071 13.6871 2.66663 13.3335 2.66663H2.66683C2.31321 2.66663 1.97407 2.8071 1.72402 3.05715C1.47397 3.3072 1.3335 3.64634 1.3335 3.99996V6.66663C1.68712 6.66663 2.02626 6.8071 2.27631 7.05715C2.52635 7.3072 2.66683 7.64634 2.66683 7.99996C2.66683 8.35358 2.52635 8.69272 2.27631 8.94277C2.02626 9.19282 1.68712 9.33329 1.3335 9.33329V12C1.3335 12.3536 1.47397 12.6927 1.72402 12.9428C1.97407 13.1928 2.31321 13.3333 2.66683 13.3333H13.3335C13.6871 13.3333 14.0263 13.1928 14.2763 12.9428C14.5264 12.6927 14.6668 12.3536 14.6668 12V9.33329C14.3132 9.33329 13.9741 9.19282 13.724 8.94277C13.474 8.69272 13.3335 8.35358 13.3335 7.99996Z" fill="#818D98"/>
</svg>
