<svg width="19" height="19" viewBox="0 0 19 19" fill="none" xmlns="http://www.w3.org/2000/svg">
<path fill-rule="evenodd" clip-rule="evenodd" d="M16.704 6.33649C16.6592 6.33385 16.6114 6.3328 16.5608 6.33332H14.5618C12.9246 6.33332 11.5242 7.62216 11.5242 9.30207C11.5242 10.982 12.9254 12.2708 14.5618 12.2708H16.5608C16.6114 12.2714 16.6594 12.2703 16.7048 12.2677C17.0413 12.2474 17.3589 12.1054 17.5985 11.8683C17.8381 11.6312 17.9833 11.3151 18.0071 10.9788C18.0103 10.9313 18.0103 10.8799 18.0103 10.8324V7.77178C18.0103 7.72428 18.0103 7.67282 18.0071 7.62532C17.9833 7.28907 17.8381 6.97294 17.5985 6.73582C17.3589 6.4987 17.0405 6.35678 16.704 6.33649ZM14.3868 10.0937C14.808 10.0937 15.1492 9.73907 15.1492 9.30207C15.1492 8.86507 14.808 8.51041 14.3868 8.51041C13.9649 8.51041 13.6237 8.86507 13.6237 9.30207C13.6237 9.73907 13.9649 10.0937 14.3868 10.0937Z" fill="#060B0F"/>
<path fill-rule="evenodd" clip-rule="evenodd" d="M16.56 13.4583C16.5874 13.4572 16.6146 13.4626 16.6395 13.474C16.6644 13.4854 16.6863 13.5025 16.7033 13.524C16.7204 13.5454 16.7321 13.5706 16.7376 13.5974C16.7431 13.6242 16.7422 13.652 16.735 13.6784C16.5766 14.2421 16.3241 14.7234 15.9195 15.1272C15.3266 15.7209 14.5753 15.983 13.6475 16.108C12.745 16.2292 11.5931 16.2292 10.138 16.2292H8.466C7.01092 16.2292 5.85825 16.2292 4.95654 16.108C4.02871 15.983 3.27742 15.7201 2.68446 15.128C2.09229 14.535 1.82946 13.7837 1.70438 12.8559C1.58325 11.9534 1.58325 10.8015 1.58325 9.34642V9.25775C1.58325 7.80267 1.58325 6.65 1.70438 5.7475C1.82946 4.81967 2.09229 4.06837 2.68446 3.47542C3.27742 2.88325 4.02871 2.62042 4.95654 2.49533C5.85904 2.375 7.01092 2.375 8.466 2.375H10.138C11.5931 2.375 12.7458 2.375 13.6475 2.49613C14.5753 2.62121 15.3266 2.88404 15.9195 3.47621C16.3241 3.88154 16.5766 4.36208 16.735 4.92575C16.7422 4.95217 16.7431 4.97992 16.7376 5.00675C16.7321 5.03359 16.7204 5.05875 16.7033 5.08019C16.6863 5.10163 16.6644 5.11875 16.6395 5.13016C16.6146 5.14156 16.5874 5.14693 16.56 5.14583H14.5618C12.3159 5.14583 10.3367 6.91917 10.3367 9.30208C10.3367 11.685 12.3159 13.4583 14.5618 13.4583H16.56ZM4.552 5.54167C4.39453 5.54167 4.24351 5.60422 4.13216 5.71557C4.02081 5.82692 3.95825 5.97794 3.95825 6.13542C3.95825 6.29289 4.02081 6.44391 4.13216 6.55526C4.24351 6.66661 4.39453 6.72917 4.552 6.72917H7.71867C7.87614 6.72917 8.02716 6.66661 8.13851 6.55526C8.24986 6.44391 8.31242 6.29289 8.31242 6.13542C8.31242 5.97794 8.24986 5.82692 8.13851 5.71557C8.02716 5.60422 7.87614 5.54167 7.71867 5.54167H4.552Z" fill="#060B0F"/>
</svg>
