<svg width="20" height="21" viewBox="0 0 20 21" fill="none" xmlns="http://www.w3.org/2000/svg">
<path d="M16.4997 3L11.3187 8.92105M3.37467 18L8.90098 11.6842M11.3187 8.92105L7.72248 3.84397C7.50359 3.53494 7.39414 3.38043 7.25269 3.26879C7.12743 3.16993 6.9844 3.09597 6.83133 3.0509C6.65847 3 6.46912 3 6.09043 3H4.68345C4.05819 3 3.74556 3 3.577 3.12977C3.43024 3.24277 3.34116 3.41504 3.33378 3.60011C3.32531 3.81267 3.50602 4.06779 3.86743 4.57802L8.90098 11.6842M11.3187 8.92105L16.6319 16.422C16.9933 16.9322 17.174 17.1873 17.1656 17.3999C17.1582 17.585 17.0691 17.7572 16.9223 17.8702C16.7538 18 16.4411 18 15.8159 18H14.4089C14.0302 18 13.8409 18 13.668 17.9491C13.5149 17.904 13.3719 17.8301 13.2467 17.7312C13.1052 17.6196 12.9958 17.4651 12.7769 17.156L8.90098 11.6842" stroke="#AFD9B7" stroke-width="2" stroke-linecap="round" stroke-linejoin="round"/>
</svg>
